<svg viewBox="0 0 500 500" xmlns="http://www.w3.org/2000/svg"><circle cx="250" cy="250" r="250"/><g fill="#fff"><circle cx="367.51" cy="350" r="25"/><path d="m392.51 125v50h-50c-13.17 46.13-35.49 156.03-63.15 188.79-5.06 7.39-13.48 11.24-22.02 11.21s-17.88-4.24-23.35-11.79c-35.52-48.98-26.8-188.01-26.5-188.21-1.79 40.31 34.01 195.75 53.86 109.69.01.18.01.36.02.54 10.21-39.75 32.45-121.27 42.77-160.23z"/><path d="m207.49 125c-13.51 0-24.51 10.71-24.98 24.1-.01.01-.02.01-.02.02v225.88h-75c13.8 0 24.99-11.19 25-24.99v-225.01z"/></g></svg>