<?xml version="1.0" encoding="UTF-8"?>
<svg id="Calque_3" data-name="Calque 3" xmlns="http://www.w3.org/2000/svg" viewBox="0 0 500 500">
  <defs>
    <style>
      .cls-1 {
        letter-spacing: 0em;
      }

      .cls-2 {
        font-family: Montserrat-Black, Montserrat;
        font-size: 38.91px;
        font-weight: 800;
      }

      .cls-2, .cls-3 {
        fill: #fff;
      }

      .cls-4 {
        letter-spacing: 0em;
      }

      .cls-5 {
        letter-spacing: -.01em;
      }
    </style>
  </defs>
  <g>
    <circle class="cls-3" cx="367.51" cy="321.13" r="25"/>
    <path class="cls-3" d="m392.51,96.13v50h-50c-13.17,46.13-35.49,156.03-63.15,188.79-5.06,7.39-13.48,11.24-22.02,11.21-8.88-.03-17.88-4.24-23.35-11.79-35.52-48.98-26.8-188.01-26.5-188.21-1.79,40.31,34.01,195.75,53.86,109.69.01.18.01.36.02.54,10.21-39.75,32.45-121.27,42.77-160.23h88.37Z"/>
    <path class="cls-3" d="m207.49,96.13c-13.51,0-24.51,10.71-24.98,24.1-.01.01-.02.01-.02.02v225.88h-75c13.8,0,24.99-11.19,25-24.99V96.13h75Z"/>
  </g>
  <text class="cls-2" transform="translate(107.49 393.37)"><tspan x="0" y="0">In</tspan><tspan class="cls-5" x="40.93" y="0">t</tspan><tspan class="cls-1" x="58.25" y="0">er Mobili</tspan><tspan class="cls-4" x="241.87" y="0">t</tspan><tspan x="259.38" y="0">y</tspan></text>
</svg>